<svg width="20" height="18" viewBox="0 0 20 18" fill="none" xmlns="http://www.w3.org/2000/svg">
<path d="M10 6.545L8.8825 4.30875C8.605 3.755 8.12375 2.95875 7.4425 2.315C6.7725 1.68125 5.97 1.25 5 1.25C2.905 1.25 1.25 2.9075 1.25 4.9C1.25 6.41375 1.9425 7.4825 3.585 9.1125C4.00625 9.53 4.48625 9.98125 5.0175 10.4788C6.4025 11.7788 8.125 13.3962 10 15.5587C11.875 13.3962 13.5975 11.7788 14.9825 10.4788C15.5138 9.98125 15.995 9.52875 16.415 9.1125C18.0575 7.4825 18.75 6.41375 18.75 4.9C18.75 2.9075 17.095 1.25 15 1.25C14.0288 1.25 13.2275 1.68125 12.5575 2.315C11.8762 2.95875 11.395 3.755 11.1175 4.30875L10 6.545ZM10.49 16.91C10.4298 16.9813 10.3548 17.0386 10.2701 17.0779C10.1855 17.1172 10.0933 17.1376 10 17.1376C9.90668 17.1376 9.81449 17.1172 9.72986 17.0779C9.64523 17.0386 9.57019 16.9813 9.51 16.91C7.50875 14.5325 5.6975 12.8325 4.20625 11.4338C1.625 9.01 0 7.48625 0 4.9C0 2.19375 2.2375 0 5 0C7 0 8.39875 1.3125 9.255 2.51C9.58 2.96625 9.8275 3.405 10 3.75C10.2162 3.31821 10.4653 2.90366 10.745 2.51C11.6012 1.31125 13 0 15 0C17.7625 0 20 2.19375 20 4.9C20 7.48625 18.375 9.01 15.7938 11.4338C14.3025 12.8338 12.4913 14.5338 10.49 16.9088V16.91Z" fill="black"/>
</svg>
